<?xml version="1.0" standalone="no"?>
<!DOCTYPE svg PUBLIC "-//W3C//DTD SVG 20010904//EN"
 "http://www.w3.org/TR/2001/REC-SVG-20010904/DTD/svg10.dtd">
<svg version="1.0" xmlns="http://www.w3.org/2000/svg"
 width="601.000000pt" height="203.000000pt" viewBox="0 0 601.000000 203.000000"
 preserveAspectRatio="xMidYMid meet">

<g transform="translate(0.000000,203.000000) scale(0.100000,-0.100000)"
fill="#000000" stroke="none">
<path d="M1060 1980 c-12 -8 -11 -10 8 -10 12 0 22 5 22 10 0 13 -11 13 -30 0z"/>
<path d="M828 1947 c-16 -6 -28 -17 -28 -24 0 -7 -5 -13 -12 -13 -9 0 -9 -3 0
-12 17 -17 15 -28 -5 -29 -14 0 -13 -3 5 -11 12 -6 22 -16 22 -23 0 -17 -21
-34 -35 -28 -18 6 -104 -33 -135 -61 -30 -29 -120 -51 -120 -30 0 7 17 22 38
33 24 14 31 20 18 21 -10 0 -34 -9 -53 -21 -18 -12 -40 -19 -47 -16 -21 8 -76
-54 -76 -86 0 -16 -8 -32 -20 -39 -11 -7 -20 -20 -20 -30 0 -28 -29 -48 -70
-48 -21 0 -41 -4 -45 -9 -3 -6 10 -8 32 -5 l38 6 -27 -25 c-21 -20 -24 -26
-13 -31 8 -3 15 0 15 6 0 6 2 9 5 6 9 -9 -7 -38 -21 -38 -16 0 -18 -8 -14 -67
2 -39 -1 -44 -32 -63 -19 -11 -44 -33 -56 -50 -13 -16 -30 -30 -40 -30 -36 -1
-69 -43 -75 -94 -3 -28 -1 -61 4 -73 6 -17 4 -31 -6 -47 -14 -21 -14 -23 9
-34 21 -10 26 -8 31 8 4 11 15 20 26 20 11 0 24 11 31 25 15 34 34 37 97 16
77 -27 91 -45 104 -136 10 -69 15 -80 46 -107 l35 -31 23 27 c24 28 25 74 3
116 -6 11 -9 24 -6 28 3 5 14 43 26 86 11 43 32 101 46 128 17 34 24 60 20 79
-5 26 -2 29 62 54 38 15 97 29 137 32 l69 6 -17 -27 c-17 -25 -17 -26 2 -26
12 0 21 9 25 25 10 38 26 20 26 -28 0 -45 22 -87 46 -87 30 0 8 -35 -46 -72
-14 -9 -19 -17 -11 -17 7 -1 29 15 48 34 19 19 39 33 43 30 5 -3 6 -47 3 -98
-5 -75 -3 -96 9 -108 9 -8 18 -33 21 -55 9 -62 19 -98 31 -106 7 -5 7 -20 -2
-53 -7 -25 -12 -56 -12 -69 0 -24 28 -56 48 -56 17 0 40 40 48 85 4 22 14 50
22 63 12 18 12 27 2 51 -6 16 -9 39 -5 50 3 11 1 30 -5 42 -8 15 -9 29 -1 47
5 15 12 61 15 102 3 41 5 76 5 78 1 1 10 2 21 2 12 0 32 -11 45 -25 14 -16 25
-21 27 -14 3 9 20 5 59 -13 37 -18 87 -58 162 -132 59 -58 118 -108 130 -111
12 -3 45 -6 74 -7 l51 -3 -15 -40 c-30 -81 -29 -88 22 -129 49 -41 41 -40 150
-21 47 9 58 -4 46 -56 -16 -68 -14 -139 4 -145 8 -4 22 0 31 7 14 12 14 14 -2
26 -20 14 -12 28 21 36 13 3 9 5 -12 6 -42 1 -47 31 -5 31 31 0 53 28 46 57
-4 15 1 22 18 27 17 4 20 8 10 15 -11 6 -8 14 13 35 22 22 26 33 21 58 -4 20
-1 34 8 42 7 6 16 23 20 37 4 21 1 28 -19 37 -32 15 -32 32 0 32 16 0 25 6 25
15 0 8 -9 15 -19 15 -31 0 -33 15 -6 40 27 26 31 40 14 57 -9 9 -18 8 -36 -4
-18 -12 -27 -13 -35 -5 -9 9 -4 14 19 22 32 12 53 50 27 50 -21 0 -17 21 5 27
18 5 37 63 20 63 -4 0 -10 13 -14 29 -4 18 -15 32 -28 36 -13 4 -17 8 -10 12
8 3 11 15 8 29 -3 13 -7 35 -10 48 -3 14 -14 26 -28 30 -13 3 -29 16 -36 30
-9 16 -19 22 -32 19 -10 -3 -19 0 -19 6 0 6 -11 11 -25 11 -29 0 -31 6 -10 26
8 8 12 21 9 29 -3 8 2 27 12 44 l17 30 -41 53 c-22 29 -65 77 -96 107 l-54 53
-41 -32 c-53 -43 -68 -29 -16 15 l40 33 -28 13 c-23 10 -33 10 -60 -3 -42 -20
-176 -53 -184 -45 -3 4 -1 13 5 20 14 16 6 27 -20 27 -22 0 -24 16 -3 24 8 3
15 11 15 18 0 7 15 20 32 28 33 15 49 40 27 40 -7 0 -31 -19 -53 -43 -44 -46
-147 -100 -153 -81 -2 7 -20 10 -50 6 -70 -8 -51 14 55 64 95 44 124 44 50 0
-29 -17 -37 -26 -24 -26 22 0 116 58 116 71 0 5 -4 9 -10 9 -5 0 -10 7 -10 15
0 13 -21 20 -55 17 -31 -2 -128 -34 -157 -52 -40 -24 -48 -25 -48 -5 0 19 -30
19 -56 0 -28 -21 -47 -19 -41 5 4 18 2 20 -16 14 -12 -4 -32 -17 -45 -29 -31
-31 -84 -53 -90 -37 -3 9 -9 9 -23 2 -10 -6 -20 -7 -20 -3 -3 20 -6 29 -13 46
-11 23 -1 33 18 18 11 -9 14 -8 12 6 -1 11 10 21 31 28 18 6 36 15 40 19 4 5
0 6 -9 3 -10 -3 -20 -2 -23 3 -7 12 -21 11 -57 -3z m932 -304 c-1 -12 -51 -46
-57 -39 -9 8 27 46 44 46 7 0 13 -3 13 -7z m30 -53 c0 -12 -28 -25 -36 -17 -9
9 6 27 22 27 8 0 14 -5 14 -10z m-1250 -9 c0 -12 -39 -25 -48 -16 -7 7 17 25
36 25 6 0 12 -4 12 -9z m1271 -71 c-12 -11 -27 -17 -33 -14 -11 7 21 33 42 33
10 0 8 -6 -9 -19z m29 -19 c0 -6 -6 -13 -12 -18 -26 -16 -122 -52 -127 -47
-11 10 41 49 82 60 57 15 57 15 57 5z m-659 -42 c11 -15 27 -22 61 -24 67 -4
177 -66 256 -145 50 -50 75 -87 109 -157 51 -107 65 -163 39 -163 -9 0 -15 6
-14 13 2 6 -5 11 -14 9 -27 -4 -54 14 -68 48 -7 16 -17 30 -23 30 -6 0 -43 30
-82 68 -104 99 -134 122 -195 151 -66 31 -72 38 -66 73 4 19 -2 39 -19 64 -14
20 -25 41 -25 45 0 17 28 9 41 -12z m749 -169 c0 -5 -2 -10 -4 -10 -3 0 -8 5
-11 10 -3 6 -1 10 4 10 6 0 11 -4 11 -10z m10 -45 c0 -7 -7 -15 -15 -19 -11
-4 -15 1 -15 19 0 18 4 23 15 19 8 -4 15 -12 15 -19z"/>
<path d="M1105 1950 c-22 -5 -51 -13 -65 -19 -23 -11 -23 -11 9 -6 18 3 41 5
50 5 10 0 26 7 37 15 10 8 17 14 14 14 -3 -1 -23 -5 -45 -9z"/>
<path d="M1205 1950 c-3 -5 -1 -10 4 -10 6 0 11 5 11 10 0 6 -2 10 -4 10 -3 0
-8 -4 -11 -10z"/>
<path d="M1545 1840 c3 -5 10 -10 16 -10 5 0 9 5 9 10 0 6 -7 10 -16 10 -8 0
-12 -4 -9 -10z"/>
<path d="M1513 1800 c-13 -5 -23 -12 -23 -15 0 -9 40 1 52 13 14 14 2 15 -29
2z"/>
<path d="M483 1765 c0 -8 4 -12 9 -9 4 3 8 9 8 15 0 5 -4 9 -8 9 -5 0 -9 -7
-9 -15z"/>
<path d="M294 1594 c-18 -14 -18 -15 4 -4 12 6 22 13 22 15 0 8 -5 6 -26 -11z"/>
<path d="M190 1470 c-9 -6 -10 -10 -3 -10 6 0 15 5 18 10 8 12 4 12 -15 0z"/>
<path d="M1907 1466 c-4 -10 -1 -13 9 -9 15 6 19 23 5 23 -5 0 -11 -7 -14 -14z"/>
<path d="M764 1238 l-19 -23 23 19 c21 18 27 26 19 26 -2 0 -12 -10 -23 -22z"/>
<path d="M3980 1121 c0 -107 -1 -110 -27 -131 -26 -20 -46 -22 -84 -6 -12 5
-19 0 -27 -22 -9 -27 -8 -31 14 -41 35 -16 100 -14 134 4 50 26 61 61 58 188
l-3 112 -32 3 -33 3 0 -110z"/>
<path d="M4120 1111 c0 -105 2 -121 21 -145 30 -38 71 -56 129 -56 57 0 93 15
130 55 23 25 25 35 28 146 l4 119 -36 0 -36 0 0 -105 c0 -99 -2 -107 -25 -130
-30 -31 -92 -34 -126 -6 -22 18 -24 28 -27 130 l-4 111 -29 0 -29 0 0 -119z"/>
<path d="M4500 1075 l0 -155 35 0 35 0 0 93 c1 106 1 106 71 -20 22 -40 46
-73 54 -73 7 0 37 41 66 90 28 50 55 90 60 90 5 0 9 -40 9 -90 l0 -90 30 0 30
0 0 155 0 155 -33 0 c-32 0 -36 -5 -93 -105 -32 -57 -65 -105 -71 -105 -7 0
-13 4 -13 9 0 5 -25 52 -57 105 -53 91 -58 96 -90 96 l-33 0 0 -155z"/>
<path d="M4970 1076 l0 -156 33 0 32 0 0 52 0 53 72 5 c62 4 77 9 100 33 38
37 37 97 -1 135 -24 25 -34 27 -131 30 l-105 4 0 -156z m188 82 c18 -18 14
-56 -7 -68 -32 -16 -108 -13 -115 6 -8 21 -8 59 1 67 11 12 108 8 121 -5z"/>
<path d="M676 1125 c-9 -26 -7 -32 5 -12 6 10 9 21 6 23 -2 3 -7 -2 -11 -11z"/>
<path d="M290 820 c0 -5 5 -10 10 -10 6 0 10 5 10 10 0 6 -4 10 -10 10 -5 0
-10 -4 -10 -10z"/>
<path d="M660 765 c0 -5 5 -17 10 -25 5 -8 10 -10 10 -5 0 6 -5 17 -10 25 -5
8 -10 11 -10 5z"/>
<path d="M774 585 c-9 -22 1 -29 15 -11 8 10 9 16 1 21 -5 3 -13 -1 -16 -10z"/>
<path d="M617 528 c-10 -11 -17 -22 -14 -24 2 -2 12 5 22 16 23 26 16 33 -8 8z"/>
<path d="M988 493 c7 -3 16 -2 19 1 4 3 -2 6 -13 5 -11 0 -14 -3 -6 -6z"/>
<path d="M1118 493 c6 -2 18 -2 25 0 6 3 1 5 -13 5 -14 0 -19 -2 -12 -5z"/>
<path d="M1420 480 c-8 -5 -12 -11 -9 -14 2 -3 11 -1 19 4 8 5 12 11 9 14 -2
3 -11 1 -19 -4z"/>
<path d="M535 470 c3 -5 8 -10 11 -10 2 0 4 5 4 10 0 6 -5 10 -11 10 -5 0 -7
-4 -4 -10z"/>
<path d="M1325 444 c-16 -18 -35 -40 -41 -50 -16 -27 -38 -31 -31 -5 7 27 4
27 -30 -5 -18 -17 -27 -34 -25 -49 3 -19 -5 -28 -37 -44 -22 -12 -47 -21 -55
-21 -11 0 -8 -7 10 -25 18 -18 36 -25 65 -25 24 0 38 -4 34 -10 -8 -12 5 -13
24 -1 7 5 10 14 6 20 -4 7 5 23 19 38 18 17 26 37 26 59 0 18 5 36 10 39 11 7
63 105 58 110 -2 1 -16 -12 -33 -31z m-45 -112 c0 -18 -18 -42 -31 -42 -5 0
-3 14 2 30 12 33 29 40 29 12z"/>
<path d="M1711 454 c0 -11 3 -14 6 -6 3 7 2 16 -1 19 -3 4 -6 -2 -5 -13z"/>
<path d="M813 443 c-20 -8 -15 -20 11 -25 19 -4 22 -1 18 14 -4 19 -8 20 -29
11z"/>
<path d="M1591 378 c0 -10 -5 -18 -11 -18 -5 0 -10 -8 -10 -17 0 -16 1 -16 16
-1 9 8 14 24 11 34 -4 17 -5 17 -6 2z"/>
<path d="M860 351 c0 -11 4 -21 9 -21 18 0 21 18 6 30 -13 10 -15 9 -15 -9z"/>
<path d="M1111 336 c-32 -33 -32 -33 -7 -29 16 3 28 15 35 34 5 16 9 29 7 29
-1 0 -17 -15 -35 -34z"/>
<path d="M1530 320 c0 -6 7 -10 15 -10 8 0 15 2 15 4 0 2 -7 6 -15 10 -8 3
-15 1 -15 -4z"/>
</g>
</svg>
